<?xml version="1.0" standalone="no"?>
<!DOCTYPE svg PUBLIC "-//W3C//DTD SVG 20010904//EN" "http://www.w3.org/TR/2001/REC-SVG-20010904/DTD/svg10.dtd">
<svg version="1.0" xmlns="http://www.w3.org/2000/svg" width="1071.000000pt" height="313.000000pt" viewBox="0 0 1071.000000 313.000000" preserveAspectRatio="xMidYMid meet">
<g transform="translate(0.000000,313.000000) scale(0.100000,-0.100000)" stroke="none">
<path fill="#fff" d="M145 3111 c-22 -10 -57 -36 -77 -57 -72 -76 -68 -11 -68 -1036 0 -872 1 -925 19 -963 24 -53 75 -103 131 -129 44 -21 56 -21 785 -21 823 0 785 -3 863 69 61 56 82 104 82 191 0 110 -46 186 -144 238 -41 22 -44 22 -628 25 l-588 3 0 727 c0 400 -3 744 -6 765 -11 61 -63 138 -118 172 -43 26 -60 30 -130 33 -63 2 -90 -2 -121 -17z"/>
<path fill="#fff" d="M1012 2263 c-59 -21 -126 -91 -147 -154 -47 -140 31 -302 163 -339 23 -6 243 -10 602 -10 l565 0 50 24 c55 25 109 80 133 135 9 20 15 65 15 101 0 36 -6 81 -15 101 -24 55 -78 110 -133 135 l-50 24 -570 -1 c-481 0 -577 -3 -613 -16z"/>
<path fill="#fff" d="M989 542 c-188 -98 -185 -363 5 -465 41 -22 41 -22 632 -22 l591 0 48 30 c124 77 166 227 100 354 -21 42 -98 106 -143 119 -28 9 -201 12 -610 12 l-570 0 -53 -28z"/>
<path fill="#fff" d="M4469 2270 c-751 -26 -788 -28 -834 -49 -94 -42 -162 -115 -185 -201 -16 -60 -71 -673 -64 -715 16 -97 84 -189 172 -232 l57 -28 413 -3 412 -3 0 -358 c0 -338 -1 -360 -19 -382 -18 -23 -25 -24 -178 -27 -132 -3 -160 -6 -170 -19 -19 -25 -18 -207 1 -223 11 -8 68 -11 208 -8 178 3 196 5 235 26 67 35 110 79 143 144 l30 61 0 394 0 393 428 0 c320 0 431 3 440 12 8 8 12 48 12 113 0 65 -4 105 -12 113 -9 9 -120 12 -440 12 l-428 0 0 270 c0 315 11 290 -125 290 -136 0 -125 25 -125 -291 l0 -270 -380 3 c-375 3 -380 3 -401 25 l-22 22 27 298 c29 310 35 338 79 348 23 5 1465 55 1594 55 98 0 103 6 103 129 0 125 -6 132 -111 130 -41 -1 -428 -14 -860 -29z"/>
<path fill="#fff" d="M5902 2268 c-8 -8 -12 -49 -12 -120 0 -96 2 -108 19 -118 13 -6 151 -10 380 -10 432 0 401 -10 401 128 0 63 -4 94 -16 110 l-15 22 -373 0 c-276 0 -375 -3 -384 -12z"/>
<path fill="#fff" d="M7055 2271 c-94 -24 -164 -80 -207 -169 l-33 -67 -3 -626 c-2 -564 -1 -629 13 -643 25 -25 206 -23 228 2 15 17 17 74 17 619 0 568 1 601 18 616 17 15 57 17 365 17 l346 0 15 -22 c14 -20 16 -95 16 -620 0 -529 2 -598 16 -612 12 -12 38 -16 113 -16 83 0 100 3 115 19 15 17 16 68 14 642 l-3 624 -26 56 c-33 69 -88 127 -154 159 l-50 25 -385 2 c-212 1 -398 -2 -415 -6z"/>
<path fill="#fff" d="M8552 2238 c-8 -8 -12 -49 -12 -118 0 -69 4 -110 12 -118 17 -17 2049 -17 2066 0 13 13 17 202 6 232 -6 14 -106 16 -1033 16 -785 0 -1030 -3 -1039 -12z"/>
<path fill="#fff" d="M5897 1853 c-13 -12 -8 -218 5 -231 9 -9 85 -12 280 -12 l268 0 0 -40 c0 -21 -6 -52 -12 -67 -7 -15 -145 -176 -305 -357 -197 -222 -293 -337 -293 -352 0 -29 135 -154 166 -154 15 0 46 26 93 78 l71 77 0 -362 c0 -210 4 -372 10 -387 9 -26 11 -26 118 -26 71 0 112 4 120 12 9 9 12 110 12 391 l0 379 47 -53 c81 -91 101 -109 122 -109 11 0 51 28 90 61 101 88 102 85 -66 275 -76 85 -139 158 -141 162 -1 4 32 46 73 92 124 138 155 224 155 423 0 109 -13 152 -55 185 -27 22 -33 22 -390 22 -199 0 -365 -3 -368 -7z"/>
<path fill="#fff" d="M7337 1833 c-13 -15 -16 -68 -20 -358 -5 -363 -8 -391 -64 -560 -34 -105 -108 -252 -174 -344 -72 -103 -197 -231 -301 -308 -48 -36 -89 -72 -92 -79 -8 -20 3 -42 58 -117 64 -86 85 -88 177 -21 194 142 353 324 469 536 l40 73 0 -200 c0 -199 0 -200 28 -260 33 -68 83 -117 156 -151 49 -23 60 -24 283 -24 272 0 253 -9 253 125 0 133 14 125 -221 125 -199 0 -200 0 -224 25 l-25 24 0 304 c0 222 -3 306 -12 315 -7 7 -39 12 -76 12 -57 0 -63 2 -57 19 28 90 38 205 42 514 6 396 16 367 -127 367 -80 0 -100 -3 -113 -17z"/>
<path fill="#fff" d="M8460 1301 c-5 -11 -10 -60 -10 -109 0 -137 -10 -131 242 -134 l207 -3 -165 -435 c-106 -282 -164 -448 -164 -473 0 -21 7 -51 15 -67 32 -63 -10 -60 938 -60 972 0 917 -4 1006 76 29 26 62 69 78 102 28 56 28 60 31 268 4 256 11 244 -135 244 -136 0 -133 5 -133 -213 0 -134 -3 -178 -14 -193 -14 -18 -35 -19 -739 -22 l-725 -2 144 381 c79 210 147 385 150 390 3 5 322 9 752 9 411 0 753 4 760 8 9 7 12 39 10 128 l-3 119 -1117 3 c-1097 2 -1117 2 -1128 -17z"/>
<path fill="#fff" d="M5346 825 c-50 -8 -92 -19 -97 -27 -14 -21 -11 -52 36 -390 25 -178 45 -326 45 -330 0 -4 10 -14 23 -22 19 -12 35 -12 110 -1 49 8 95 19 103 26 20 17 19 32 -31 396 -40 288 -48 330 -66 346 -12 9 -24 16 -28 16 -3 -1 -46 -7 -95 -14z"/>
<path fill="#fff" d="M3487 818 c-14 -11 -22 -67 -47 -347 -16 -184 -30 -347 -30 -362 0 -39 21 -47 131 -55 80 -6 96 -4 108 10 14 16 74 627 69 696 -4 45 -27 56 -133 64 -58 4 -86 3 -98 -6z"/>
</g>
</svg>
