<?xml version="1.0" standalone="no"?>
<!DOCTYPE svg PUBLIC "-//W3C//DTD SVG 20010904//EN" "http://www.w3.org/TR/2001/REC-SVG-20010904/DTD/svg10.dtd">
<svg version="1.0" xmlns="http://www.w3.org/2000/svg" width="250.000000pt" height="313.000000pt" viewBox="0 0 250.000000 313.000000" preserveAspectRatio="xMidYMid meet">
<g transform="translate(0.000000,313.000000) scale(0.100000,-0.100000)" stroke="none">
<path fill="rgb(32, 138, 195)" d="M145 3111 c-22 -10 -57 -36 -77 -57 -72 -76 -68 -11 -68 -1036 0 -872 1 -925 19 -963 24 -53 75 -103 131 -129 44 -21 56 -21 785 -21 823 0 785 -3 863 69 61 56 82 104 82 191 0 110 -46 186 -144 238 -41 22 -44 22 -628 25 l-588 3 0 727 c0 400 -3 744 -6 765 -11 61 -63 138 -118 172 -43 26 -60 30 -130 33 -63 2 -90 -2 -121 -17z"/>
<path fill="rgb(29, 166, 140)" d="M1012 2263 c-59 -21 -126 -91 -147 -154 -47 -140 31 -302 163 -339 23 -6 243 -10 602 -10 l565 0 50 24 c55 25 109 80 133 135 9 20 15 65 15 101 0 36 -6 81 -15 101 -24 55 -78 110 -133 135 l-50 24 -570 -1 c-481 0 -577 -3 -613 -16z"/>
<path fill="rgb(29, 166, 140)" d="M989 542 c-188 -98 -185 -363 5 -465 41 -22 41 -22 632 -22 l591 0 48 30 c124 77 166 227 100 354 -21 42 -98 106 -143 119 -28 9 -201 12 -610 12 l-570 0 -53 -28z"/>
</g>
</svg>
